<svg width="40" height="41" viewBox="0 0 40 41" fill="none" xmlns="http://www.w3.org/2000/svg">
<g id="np_problem-solving_1870422_000000">
<path id="Shape" fill-rule="evenodd" clip-rule="evenodd" d="M9.04724 22.4448C4.10584 22.4448 0 26.4854 0 31.4864C0 36.4874 4.10597 40.528 9.04724 40.528C14.0513 40.528 18.0945 36.4874 18.0945 31.4864C18.159 26.4855 14.0514 22.4448 9.04724 22.4448ZM3.97836 37.3224C4.74761 35.2062 6.80227 33.7315 9.04724 33.7315C11.3566 33.7315 13.4114 35.2062 14.1161 37.3224C12.7679 38.4764 10.9713 39.2468 9.04724 39.2468C7.12163 39.2452 5.32505 38.5409 3.97836 37.3224ZM9.11162 32.5131C11.6774 32.5131 14.0529 34.0523 15.1431 36.3602H15.1432C16.2334 35.0126 16.8753 33.2817 16.8108 31.4862C16.8108 27.191 13.3465 23.7274 9.04716 23.7274C4.74931 23.7274 1.28355 27.1895 1.28355 31.4862C1.28355 33.2818 1.9254 35.0128 3.08012 36.3602C4.10753 34.0523 6.4813 32.5131 9.11162 32.5131Z" fill="black"/>
<path id="Shape_2" fill-rule="evenodd" clip-rule="evenodd" d="M5.71423 28.6312C5.71423 26.7877 7.20251 25.3 9.04673 25.3C10.8909 25.3 12.4391 26.7877 12.3792 28.6312C12.3792 30.4746 10.8909 31.9623 9.04673 31.9623C7.20251 31.9623 5.71423 30.4746 5.71423 28.6312ZM6.90486 28.6325C6.90486 29.8211 7.85613 30.7736 9.04673 30.7736C10.2373 30.7736 11.2484 29.8211 11.1886 28.6325C11.1886 27.4439 10.2373 26.4915 9.04673 26.4915C7.85767 26.4915 6.90486 27.4424 6.90486 28.6325Z" fill="black"/>
<path id="Shape_3" fill-rule="evenodd" clip-rule="evenodd" d="M30.9524 22.4448C25.9481 22.4448 21.9048 26.4854 21.9048 31.4864C21.9048 36.4874 25.9481 40.528 30.9524 40.528C35.894 40.528 40 36.4874 40 31.4864C40 26.4854 35.8939 22.4448 30.9524 22.4448ZM30.9526 23.7277C35.2521 23.7278 38.7163 27.1913 38.7163 31.4865C38.7163 33.3464 38.0745 35.0129 36.9842 36.3605C35.894 34.0526 33.5183 32.5134 30.9525 32.5134C28.3221 32.5134 25.9482 34.0526 24.9207 36.3605C23.8305 35.0131 23.1886 33.3466 23.1886 31.4865C23.1241 27.1898 26.6529 23.7277 30.9526 23.7277ZM30.888 33.7316C28.643 33.7316 26.5882 35.2063 25.8189 37.3226C27.2302 38.541 28.964 39.2454 30.888 39.247C32.8122 39.247 34.6088 38.4766 35.9571 37.3226C35.2524 35.2063 33.1975 33.7316 30.888 33.7316Z" fill="black"/>
<path id="Shape_4" fill-rule="evenodd" clip-rule="evenodd" d="M20.4762 0.554443C25.4805 0.554443 29.5238 4.59511 29.5238 9.5961C29.5238 14.7261 25.4177 18.6378 20.4762 18.6378C15.5347 18.6378 11.4286 14.6618 11.4286 9.5961C11.4286 4.59506 15.4719 0.554443 20.4762 0.554443ZM12.7123 9.59613C12.7123 13.9558 16.241 17.355 20.4762 17.355C24.7114 17.355 28.2401 13.9576 28.2401 9.59613C28.2401 5.30091 24.7759 1.83728 20.4762 1.83728C16.1765 1.83728 12.7123 5.29939 12.7123 9.59613Z" fill="black"/>
<path id="Shape_5" fill-rule="evenodd" clip-rule="evenodd" d="M34.2857 28.6312C34.2857 30.4746 32.7974 31.9623 30.9532 31.9623C29.109 31.9623 27.5609 30.4761 27.6207 28.6312C27.6207 26.7877 29.109 25.3 30.9532 25.3C32.7974 25.3 34.2857 26.7877 34.2857 28.6312ZM33.0951 28.6309C33.0951 27.4423 32.1438 26.4899 30.9532 26.4899C29.7626 26.4899 28.7515 27.4423 28.8113 28.6309C28.8113 29.8195 29.7626 30.7719 30.9532 30.7719C32.1423 30.7719 33.0951 29.821 33.0951 28.6309Z" fill="black"/>
<path id="Shape_6" d="M20.925 12.9272C20.3804 12.9272 20 13.3749 20 13.879C20 14.383 20.4351 14.8307 20.9798 14.8307C21.5244 14.8307 21.9048 14.383 21.9048 13.879C21.9048 13.3186 21.4696 12.9272 20.925 12.9272V12.9272Z" fill="black"/>
<path id="Shape_7" d="M18.0002 6.54456H19.6237C19.8036 4.95663 22.0892 5.07338 22.0892 6.54456C22.0892 7.3681 21.4876 7.54403 20.7665 8.36757C19.9245 9.19112 20.1044 9.30942 20.0455 10.6623H21.6085V10.0738C21.6085 8.60267 23.7143 8.48592 23.7143 6.48542C23.7143 3.19123 18.3616 3.1321 18 6.54457L18.0002 6.54456Z" fill="black"/>
<path id="Shape_8" d="M33.6058 10.9083C33.8775 11.1557 34.286 11.1557 34.5577 10.9083C34.8294 10.6609 34.8294 10.2891 34.5577 10.0417L33.7425 9.29792H36.7349V20.8738C36.7349 21.2457 37.0067 21.493 37.4151 21.493C37.8235 21.493 38.0953 21.2457 38.0953 20.8738L38.0935 8.67852C38.0935 8.30664 37.8218 8.05927 37.4133 8.05927H33.7408L34.5559 7.31713C34.8277 7.06975 34.8277 6.69789 34.5559 6.45049C34.2842 6.20311 33.8758 6.20311 33.6041 6.45049L31.6319 8.24599C31.4952 8.37048 31.4286 8.49338 31.4286 8.68011C31.4286 8.86524 31.497 8.98973 31.6319 9.11423L33.6058 10.9083Z" fill="black"/>
<path id="Shape_9" d="M4.49004 21.4929C4.89868 21.4929 5.17051 21.2455 5.17051 20.8737L5.16875 9.29903H8.16253L7.34701 10.0411C7.07516 10.2885 7.07516 10.6603 7.34701 10.9076C7.61885 11.155 8.02747 11.155 8.29933 10.9076L10.2724 9.11233C10.5442 8.86498 10.5442 8.49316 10.2724 8.24579L8.29933 6.45047C8.02749 6.20311 7.61886 6.20311 7.34701 6.45047C7.07516 6.69783 7.07516 7.06965 7.34701 7.31702L8.16253 8.05908L4.49004 8.06068C4.0814 8.06068 3.80957 8.30804 3.80957 8.67986V20.8739C3.80957 21.2457 4.08141 21.493 4.49004 21.493L4.49004 21.4929Z" fill="black"/>
</g>
</svg>
