<svg width="43" height="35" viewBox="0 0 43 35" fill="none" xmlns="http://www.w3.org/2000/svg">
<g id="np_testing_823143_000000">
<path id="Shape" fill-rule="evenodd" clip-rule="evenodd" d="M16.8606 0.549805L43 7.19373L38.4714 23.2276L35.1063 22.3726V34.5274H0V10.1935H14.1361L16.8606 0.549805ZM33.3334 11.8757H1.77319V32.8454H33.3334V11.8757ZM15.287 10.1937L17.6474 1.84119L41.637 7.94033L37.6845 21.9365L35.1062 21.2812V18.7283L35.6677 18.8737L35.9614 17.8575L35.1062 17.635V14.3549L36.8183 14.7982L37.112 13.7802L35.1062 13.2616V10.1936H23.2694L22.2351 9.92555L22.1594 10.1936H20.1167C20.1257 10.168 20.1292 10.1585 20.132 10.1512C20.1359 10.1405 20.1383 10.1342 20.1536 10.0885C20.3642 9.33861 19.895 8.5659 19.1045 8.36615C18.9949 8.34346 18.9636 8.33544 18.9319 8.33181C18.8925 8.3273 18.8524 8.32951 18.6613 8.31884C17.9706 8.40994 17.4996 8.70258 17.289 9.35962L17.2868 9.37389C17.2415 9.66218 17.2025 9.91096 17.3297 10.1937H15.287Z" fill="black"/>
<path id="Shape_2" d="M22.8211 5.40375L37.881 9.24368L37.5837 10.2578L22.5238 6.41782L22.8211 5.40375Z" fill="black"/>
<path id="Shape_3" d="M19.5657 6.32511C18.7473 6.11664 18.2616 5.319 18.4815 4.54131C18.7014 3.76543 19.5428 3.30497 20.3611 3.51162C21.1795 3.72009 21.6671 4.51773 21.4472 5.29542C21.2273 6.07131 20.386 6.53176 19.5657 6.32511Z" fill="black"/>
<path id="Shape_4" d="M15.1005 14.1409L16.381 15.3862C16.1434 15.6582 16.1434 15.6582 15.193 16.7483C14.4059 17.6506 13.6188 18.5529 12.8317 19.4533C11.8777 20.5492 10.9237 21.6431 9.96969 22.737C9.01932 23.8252 9.01932 23.8252 8.78174 24.0972L8.15057 24.8195L7.51035 24.1087C7.08414 23.6336 7.08414 23.6336 5.80188 22.2102C4.52144 20.7867 4.52144 20.7867 4.09521 20.3116L5.35569 19.0453C5.78372 19.5204 5.78372 19.5204 7.06416 20.9438C7.41964 21.3385 7.77509 21.7332 8.13061 22.1297C8.47883 21.7312 8.29384 21.9439 8.6892 21.4898C9.47633 20.5875 10.2634 19.6871 11.0488 18.7829C12.0046 17.6889 12.9586 16.595 13.9125 15.5011C14.8629 14.4129 14.8629 14.4129 15.1005 14.1409L15.1005 14.1409Z" fill="black"/>
<path id="Shape_5" d="M27.4856 21.9072L28.6667 23.1214C28.4475 23.3885 28.4475 23.3885 27.5709 24.4495C26.8449 25.3293 26.1189 26.2091 25.3928 27.0889C24.5129 28.1556 23.633 29.2221 22.753 30.2888C21.8764 31.3498 21.8764 31.3498 21.6573 31.615L20.4762 30.4008C20.6953 30.1355 20.6953 30.1355 21.5719 29.0746C22.2963 28.1948 23.0223 27.3149 23.7484 26.4351C24.63 25.3685 25.5099 24.3019 26.3899 23.2353C27.2665 22.1724 27.2665 22.1724 27.4856 21.9072Z" fill="black"/>
<path id="Shape_6" d="M21.6573 21.9072C21.8764 22.1725 21.8764 22.1725 22.753 23.2353C23.479 24.1133 24.2034 24.9931 24.9294 25.8729C25.811 26.9395 26.691 28.0061 27.5709 29.0746C28.4475 30.1356 28.4475 30.1356 28.6667 30.4008L27.4856 31.615C27.2665 31.3497 27.2665 31.3497 26.3899 30.2888C25.6638 29.409 24.9378 28.5291 24.2118 27.6493C23.3318 26.5827 22.4519 25.5161 21.5719 24.4495C20.6953 23.3885 20.6953 23.3885 20.4762 23.1214L21.6573 21.9072Z" fill="black"/>
<path id="Shape_7" d="M21.984 14.1409L23.5476 14.9601C23.2442 15.4499 23.2442 15.4499 22.0308 17.4108C20.5158 19.8616 20.5158 19.8616 18.6975 22.8022C16.8792 25.7427 16.8792 25.7427 15.3624 28.1935C14.1509 30.1544 14.1509 30.1544 13.8475 30.6442L12.2857 29.825C12.5872 29.3352 12.5872 29.3352 13.8007 27.3742C15.3156 24.9235 15.3156 24.9235 17.1358 21.9829C18.9541 19.0406 18.9541 19.0406 20.469 16.5916C21.6824 14.6307 21.6824 14.6307 21.984 14.1409Z" fill="black"/>
</g>
</svg>
