<svg width="40" height="41" viewBox="0 0 40 41" fill="none" xmlns="http://www.w3.org/2000/svg">
<g id="np_iterative_935848_000000">
<path id="Shape" fill-rule="evenodd" clip-rule="evenodd" d="M0.785714 0.550476H10.2143C10.6484 0.550476 11 0.901852 11 1.33567V10.758C11 11.1918 10.6484 11.5432 10.2143 11.5432H0.785714C0.351608 11.5432 0 11.1918 0 10.758V1.33567C0 0.901852 0.351608 0.550476 0.785714 0.550476ZM1.57141 9.9729H9.42859V2.12085H1.57141V9.9729Z" fill="black"/>
<path id="Shape_2" fill-rule="evenodd" clip-rule="evenodd" d="M29.7857 0.550476H39.2143C39.6484 0.550476 40 0.901852 40 1.33567V10.758C40 11.1918 39.6484 11.5432 39.2143 11.5432H29.7857C29.3516 11.5432 29 11.1918 29 10.758V1.33567C29 0.901852 29.3516 0.550476 29.7857 0.550476ZM30.5714 9.9729H38.4286V2.12085H30.5714V9.9729Z" fill="black"/>
<path id="Shape_3" d="M22.166 3.79211C21.854 3.46733 21.3479 3.46733 21.034 3.79211C20.722 4.1169 20.722 4.64365 21.034 4.97048L21.268 5.21407H16.8C16.358 5.21407 16 5.58674 16 6.04685C16 6.50696 16.358 6.87963 16.8 6.87963H21.268L21.034 7.12321C20.722 7.448 20.722 7.97476 21.034 8.30158C21.19 8.46397 21.396 8.54517 21.6 8.54517C21.804 8.54517 22.01 8.46397 22.166 8.30158L23.766 6.63602C24.078 6.31123 24.078 5.78448 23.766 5.45765L22.166 3.79211Z" fill="black"/>
<path id="Shape_4" d="M34.5 16.54C34.0396 16.54 33.6666 16.8977 33.6666 17.3394V21.8045L33.4229 21.5707C33.0979 21.2589 32.5708 21.2589 32.2438 21.5707C31.9187 21.8825 31.9187 22.3881 32.2438 22.7019L33.9104 24.3008C34.0729 24.4567 34.2875 24.5347 34.5 24.5347C34.7125 24.5347 34.9271 24.4567 35.0896 24.3008L36.7562 22.7019C37.0813 22.3901 37.0813 21.8844 36.7562 21.5707C36.4312 21.2589 35.9041 21.2589 35.5771 21.5707L35.3334 21.8045V17.3394C35.3334 16.8977 34.9604 16.54 34.5 16.54H34.5Z" fill="black"/>
<path id="Shape_5" fill-rule="evenodd" clip-rule="evenodd" d="M29.7857 29.5313H39.2143C39.6484 29.5313 40 29.8827 40 30.3165V39.7389C40 40.1727 39.6484 40.5241 39.2143 40.5241H29.7857C29.3516 40.5241 29 40.1727 29 39.7389V30.3165C29 29.8827 29.3516 29.5313 29.7857 29.5313ZM30.5714 38.9537H38.4286V31.1017H30.5714V38.9537Z" fill="black"/>
<path id="Shape_6" d="M23.2 34.1949H18.732L18.966 33.9513C19.278 33.6265 19.278 33.0998 18.966 32.773C18.654 32.4482 18.1479 32.4482 17.834 32.773L16.234 34.4385C15.922 34.7633 15.922 35.2901 16.234 35.6169L17.834 37.2825C17.99 37.4449 18.196 37.5261 18.4 37.5261C18.604 37.5261 18.81 37.4449 18.966 37.2825C19.278 36.9577 19.278 36.4309 18.966 36.1041L18.732 35.8605H23.2C23.642 35.8605 24 35.4878 24 35.0277C24 34.5676 23.642 34.1949 23.2 34.1949L23.2 34.1949Z" fill="black"/>
<path id="Shape_7" fill-rule="evenodd" clip-rule="evenodd" d="M0.785714 29.5313H10.2143C10.6484 29.5313 11 29.8827 11 30.3165V39.7389C11 40.1727 10.6484 40.5241 10.2143 40.5241H0.785714C0.351608 40.5241 0 40.1727 0 39.7389V30.3165C0 29.8827 0.351608 29.5313 0.785714 29.5313ZM1.57141 38.9537H9.42859V31.1017H1.57141V38.9537Z" fill="black"/>
<path id="Shape_8" d="M5.49996 24.5347C5.96037 24.5347 6.33329 24.1769 6.33329 23.7352V19.2701L6.57704 19.504C6.73955 19.6599 6.95413 19.7378 7.16665 19.7378C7.37916 19.7378 7.59373 19.6599 7.75625 19.504C8.08125 19.1922 8.08125 18.6865 7.75625 18.3728L6.08958 16.7738C5.76457 16.462 5.23747 16.462 4.91042 16.7738L3.24375 18.3728C2.91875 18.6846 2.91875 19.1902 3.24375 19.504C3.56876 19.8158 4.09586 19.8158 4.4229 19.504L4.66665 19.2701V23.7352C4.66665 24.1769 5.03957 24.5347 5.49999 24.5347H5.49996Z" fill="black"/>
</g>
</svg>
